<svg xmlns="http://www.w3.org/2000/svg" aria-hidden="true" style="position:absolute;width:0;height:0;overflow:hidden">
<defs>
<symbol id="icon-world" viewBox="0 0 32 32"><path d="M15.5 0C6.939 0 0 6.939 0 15.5S6.939 31 15.5 31 31 24.061 31 15.5 24.061 0 15.5 0zm13.475 15h-5.996c-.055-2.215-.449-4.331-1.148-6.268a16.334 16.334 0 0 0 3.736-2.197A13.433 13.433 0 0 1 28.975 15zM14.947 28.972c-1.662-1.384-3.056-3.181-4.076-5.268A15.497 15.497 0 0 1 15 23.025v5.949l-.053-.002zm1.104-26.944c1.886 1.57 3.425 3.673 4.466 6.126-1.426.487-2.941.77-4.518.82V2.025l.052.003zm1.666.17a13.463 13.463 0 0 1 7.164 3.614 15.297 15.297 0 0 1-3.428 1.998c-.91-2.157-2.187-4.064-3.736-5.612zM15 2.025v6.949a15.492 15.492 0 0 1-4.518-.82c1.041-2.453 2.58-4.556 4.466-6.126L15 2.025zM9.546 7.811a15.335 15.335 0 0 1-3.427-1.998 13.46 13.46 0 0 1 7.164-3.614c-1.55 1.547-2.826 3.454-3.737 5.612zm.559 1.265c1.542.535 3.185.847 4.895.899V15H9.021c.054-2.094.425-4.095 1.084-5.924zM15 16v6.025a16.411 16.411 0 0 0-4.539.769A18.785 18.785 0 0 1 9.021 16H15zm-1.717 12.802a13.431 13.431 0 0 1-6.545-3.052 15.199 15.199 0 0 1 3.188-1.7 17.317 17.317 0 0 0 3.357 4.752zm2.717.173v-5.949c1.432.046 2.82.27 4.129.679-1.021 2.087-2.414 3.884-4.076 5.268l-.053.002zm5.074-4.925a15.32 15.32 0 0 1 3.188 1.7 13.44 13.44 0 0 1-6.545 3.052 17.338 17.338 0 0 0 3.357-4.752zm-.535-1.256A16.424 16.424 0 0 0 16 22.025V16h5.979a18.806 18.806 0 0 1-1.44 6.794zM16 15V9.975a16.44 16.44 0 0 0 4.895-.898c.658 1.829 1.029 3.83 1.084 5.924H16zM5.434 6.535a16.35 16.35 0 0 0 3.735 2.197C8.47 10.669 8.076 12.785 8.021 15H2.025a13.429 13.429 0 0 1 3.409-8.465zM2.025 16h5.996a19.724 19.724 0 0 0 1.503 7.137 16.23 16.23 0 0 0-3.538 1.931A13.463 13.463 0 0 1 2.025 16zm22.989 9.067a16.256 16.256 0 0 0-3.539-1.931 19.725 19.725 0 0 0 1.504-7.137h5.996a13.464 13.464 0 0 1-3.961 9.068z"/></symbol>
<symbol id="icon-phone" viewBox="0 0 24 24"><path d="M6.609 10.781q2.25 4.359 6.609 6.609l2.203-2.203q.469-.469 1.031-.234 1.688.563 3.563.563.422 0 .703.281t.281.703v3.516q0 .422-.281.703t-.703.281q-7.031 0-12.023-4.992T3 3.985q0-.422.281-.703t.703-.281H7.5q.422 0 .703.281t.281.703q0 1.875.563 3.563.188.609-.234 1.031z"/></symbol>
<symbol id="icon-github" viewBox="0 0 24 24"><path d="M8.713 18.042c-1.268.38-2.06.335-2.583.17a2.282 2.282 0 0 1-.614-.302c-.411-.284-.727-.675-1.119-1.172-.356-.451-.85-1.107-1.551-1.476a2.694 2.694 0 0 0-.604-.232 1 1 0 1 0-.485 1.941c.074.023.155.06.155.06.252.133.487.404.914.946.366.464.856 1.098 1.553 1.579.332.229.711.426 1.149.564 1.015.321 2.236.296 3.76-.162a1 1 0 1 0-.575-1.915zM17 22v-3.792a4.377 4.377 0 0 0-.292-1.942c.777-.171 1.563-.427 2.297-.823 2.083-1.124 3.496-3.242 3.496-6.923a6.408 6.408 0 0 0-1.379-3.981 6.044 6.044 0 0 0-.293-3.933 1 1 0 0 0-.634-.564c-.357-.106-1.732-.309-4.373 1.362a14.24 14.24 0 0 0-6.646-.002C6.537-.267 5.163-.064 4.806.042a.998.998 0 0 0-.635.565 6.044 6.044 0 0 0-.292 3.932A6.414 6.414 0 0 0 2.5 8.556c0 3.622 1.389 5.723 3.441 6.859.752.416 1.56.685 2.357.867a4.395 4.395 0 0 0-.299 1.88L8 22a1 1 0 0 0 2 0v-3.87l-.002-.069a2.357 2.357 0 0 1 .661-1.816 1 1 0 0 0-.595-1.688c-.34-.042-.677-.094-1.006-.159-.79-.156-1.518-.385-2.147-.733-1.305-.723-2.391-2.071-2.41-5.042.013-1.241.419-2.319 1.224-3.165a1 1 0 0 0 .212-1.04 4.045 4.045 0 0 1-.14-2.392c.491.107 1.354.416 2.647 1.282a1 1 0 0 0 .825.133 12.229 12.229 0 0 1 6.47.002.994.994 0 0 0 .818-.135c1.293-.866 2.156-1.175 2.647-1.282a4.041 4.041 0 0 1-.141 2.392c-.129.352-.058.755.213 1.04a4.419 4.419 0 0 1 1.224 3.06c0 3.075-1.114 4.445-2.445 5.163-.623.336-1.343.555-2.123.7-.322.06-.651.106-.983.143a1 1 0 0 0-.608 1.689 2.36 2.36 0 0 1 .662 1.837l-.003.078V22a1 1 0 0 0 2 0z"/></symbol>
<symbol id="icon-paper-plane" viewBox="0 0 20 20"><path d="M18.64 2.634.984 8.856c-.284.1-.347.345-.01.479l3.796 1.521 2.25.901 10.984-8.066c.148-.108.318.095.211.211l-7.871 8.513v.002l-.452.503.599.322 4.982 2.682c.291.156.668.027.752-.334l2.906-12.525c.079-.343-.148-.552-.491-.431zM7 17.162c0 .246.139.315.331.141.251-.229 2.85-2.561 2.85-2.561L7 13.098v4.064z"/></symbol>
<symbol id="icon-mail" viewBox="0 0 20 20"><path d="m1.574 5.286 7.5 4.029c.252.135.578.199.906.199.328 0 .654-.064.906-.199l7.5-4.029c.489-.263.951-1.286.054-1.286H1.521c-.897 0-.435 1.023.053 1.286zm17.039 2.203-7.727 4.027c-.34.178-.578.199-.906.199s-.566-.021-.906-.199-7.133-3.739-7.688-4.028C.996 7.284 1 7.523 1 7.707V15c0 .42.566 1 1 1h16c.434 0 1-.58 1-1V7.708c0-.184.004-.423-.387-.219z"/></symbol>
</defs>
</svg>